<svg id="svg4761" height="19.533mm" width="131.78mm" viewBox="0 0 466.93165 69.211001"
  xmlns:dc="http://purl.org/dc/elements/1.1/"
  xmlns:cc="http://creativecommons.org/ns#"
  xmlns:rdf="http://www.w3.org/1999/02/22-rdf-syntax-ns#"
  xmlns:svg="http://www.w3.org/2000/svg"
  xmlns="http://www.w3.org/2000/svg"
  xmlns:xlink="http://www.w3.org/1999/xlink"
  xmlns:sodipodi="http://sodipodi.sourceforge.net/DTD/sodipodi-0.dtd"
  xmlns:inkscape="http://www.inkscape.org/namespaces/inkscape" />

  <metadata id="metadata4766">
    <rdf:RDF>
      <cc:Work
         rdf:about="">
        <dc:format>image/svg+xml</dc:format>
        <dc:type
           rdf:resource="http://purl.org/dc/dcmitype/StillImage" />
        <dc:title />
      </cc:Work>
    </rdf:RDF>
 </metadata>
 <g>
  <text id="text4757" style="word-spacing:0px;letter-spacing:0px" font-weight="300" xml:space="preserve" font-size="40px" line-height="125%" y="1329.052" x="-47.243629" font-family="&apos;RBNo2 Light Alternative&apos;" fill="#000000"><tspan id="tspan4759" x="-47.243629" y="1329.052"/></text>
  <g id="text4886" opacity="0.99" transform="translate(-62.799 -59.977)" stroke="#fff" stroke-width=".1" fill="#fff">
   <path id="path3346" d="m298.19 60.039h-12.803-3.9094-12.901v2.932h12.901v66.069h3.9094v-66.069h12.803v-2.932z"/>
   <path id="path3348" d="m313.17 79.782v46.424l-9.7735-0.0977c-0.39094 0-0.68415-0.0977-1.0751-0.19547-1.0751-0.39094-1.9547-1.7592-1.9547-3.0298v-43.101h-3.9094v43.101c0 3.2252 2.6388 6.1573 5.8641 6.1573h1.0751l13.781 0.0977v-2.932-46.424h-4.0071z"/>
   <path id="path3350" d="m332.77 79.782c-3.323 0.2932-5.8641 2.6388-5.8641 5.9618v43.296h3.9094v-43.296c0-1.3683 0.87961-2.4434 1.9547-2.8343 0.39094-0.09774 1.1728-0.2932 1.1728-0.2932l6.7437-0.09774v-2.7366c-1.466 0-6.4505-0.09774-7.9165 0z"/>
   <path id="path3352" d="m360.95 79.782h-0.97734-11.826v2.932h11.826c0.39094 0 0.68414 0.09773 0.97734 0.19547 1.1728 0.39094 1.9547 1.466 1.9547 2.8343v12.803h-11.728-1.0751c-3.2252 0-5.8641 2.6388-5.8641 5.8641v18.765c0 3.2252 2.6388 5.8641 5.8641 5.8641h1.0751 11.728 4.0071v-2.932-24.629-2.932-12.803c0-3.323-2.6388-5.9618-5.9618-5.9618zm1.9547 46.326h-11.728c-0.39094 0-0.68415-0.0977-1.0751-0.19547-1.0751-0.39094-1.9547-1.466-1.9547-2.7366v-18.765c0-1.2706 0.87961-2.3456 1.9547-2.7366 0.39094-0.0977 0.68415-0.19547 1.0751-0.19547h11.728v24.629z"/>
   <path id="path3354" d="m391.49 103.14c-3.2252-1.6615-7.5256-3.323-10.164-4.8867-2.0524-1.0751-3.0298-1.5638-3.0298-4.6913v-7.8188c0-1.3683 0.87961-2.4434 1.9547-2.8343 0.39094-0.09774 0.68414-0.19547 1.0751-0.19547h12.803v-2.932h-12.803-1.0751c-3.2252 0-5.8641 2.6388-5.8641 5.9618v7.8188c0 2.6388 0 5.4731 3.9094 7.5256 3.6162 1.7592 6.8414 3.1275 9.7735 4.6913 1.6615 0.87961 3.0298 1.857 3.0298 4.5935v12.803c0 1.2706-0.78188 2.3456-1.9547 2.7366-0.2932 0.0977-0.5864 0.19547-0.97734 0.19547h-13.781v2.932h13.781 0.97734c3.323 0 5.9618-2.6388 5.9618-5.8641v-13.878s0-4.3981-3.6162-6.1573z"/>
   <path id="path3356" d="m446.51 60.039h-12.803-3.9094-12.901v2.932h12.901v66.069h3.9094v-66.069h12.803v-2.932z"/>
   <path id="path3358" d="m461.86 79.782h-0.97734-8.7961-1.0751c-3.2252 0-5.8641 2.6388-5.8641 5.9618v15.735 2.932 18.765c0 3.2252 2.6388 5.8641 5.8641 5.8641h1.0751 14.758v-2.932h-14.758c-0.39094 0-0.68415-0.0977-1.0751-0.19547-1.0751-0.39094-1.9547-1.466-1.9547-2.7366v-18.765h14.758 4.0071v-2.932-15.735c0-3.323-2.6388-5.9618-5.9618-5.9618zm-12.803 21.697v-15.735c0-1.3683 0.87961-2.4434 1.9547-2.8343 0.39093-0.09774 0.68414-0.19547 1.0751-0.19547h8.7961c0.39094 0 0.68414 0.09773 0.97734 0.19547 1.1728 0.39094 1.9547 1.466 1.9547 2.8343v15.735h-14.758z"/>
   <path id="path3360" d="m481.75 82.909c0.39094-0.09774 0.68415-0.19547 1.0751-0.19547h14.758v-2.932h-14.758-1.0751c-3.2252 0-5.8641 2.6388-5.8641 5.9618v37.432c0 3.2252 2.6388 5.8641 5.8641 5.8641h1.0751 14.758v-2.932h-14.758c-0.39094 0-0.68415-0.0977-1.0751-0.19547-1.0751-0.39094-1.9547-1.466-1.9547-2.7366v-37.432c0-1.3683 0.87961-2.4434 1.9547-2.8343z"/>
   <path id="path3362" d="m525.77 79.782h-14.856v-19.742h-3.9094v69.001h3.9094v-46.326h13.781c0.58641 0 1.0751 0.48867 1.0751 0.97735v45.349h3.9094v-45.349c0-2.1502-1.7592-3.9094-3.9094-3.9094z"/>
  </g>
  <g fill-rule="evenodd" stroke-width=".1">
   <path id="path4981" d="m62.815 33.524-19.385-0.0129 40.671-33.461 50.543 0.0247-15.538 12.751-31.09-0.0185-25.201 20.716" stroke="#fff" fill="#fff"/>
   <path id="path4983" d="m0.13936 69.128 40.671-33.461 19.459 0.009-25.193 20.709 31.035 0.0199-15.545 12.756z" stroke="#00b0e7" fill="#00b0e7"/>
   <path id="path4985" d="m125.85 35.687 19.385 0.0129-40.671 33.461-50.543-0.0247 15.538-12.751 31.09 0.0166 25.201-20.716" stroke="#fff" fill="#fff"/>
   <path id="path4987" d="m188.52 0.083179-40.671 33.461-19.459-0.009 25.193-20.709-31.035-0.0199 15.545-12.756z" stroke="#00b0e7" fill="#00b0e7"/>
  </g>
  <text id="text3364" style="word-spacing:0px;letter-spacing:0px" xml:space="preserve" font-size="40px" y="53.816307" x="304.1152" font-family="sans-serif" line-height="125%" fill="#000000"><tspan id="tspan3366" x="304.1152" y="53.816307"/></text>
 </g>
</svg>
