<svg id="logoSquare" height="41.889mm" width="77.51mm" viewBox="0 0 274.64204 148.42505"
  xmlns:dc="http://purl.org/dc/elements/1.1/"
  xmlns:cc="http://creativecommons.org/ns#"
  xmlns:rdf="http://www.w3.org/1999/02/22-rdf-syntax-ns#"
  xmlns:svg="http://www.w3.org/2000/svg"
  xmlns="http://www.w3.org/2000/svg"
  xmlns:xlink="http://www.w3.org/1999/xlink"
  xmlns:sodipodi="http://sodipodi.sourceforge.net/DTD/sodipodi-0.dtd"
  xmlns:inkscape="http://www.inkscape.org/namespaces/inkscape" />

  <metadata id="metadata4766">
    <rdf:RDF>
      <cc:Work
         rdf:about="">
        <dc:format>image/svg+xml</dc:format>
        <dc:type
           rdf:resource="http://purl.org/dc/dcmitype/StillImage" />
        <dc:title />
      </cc:Work>
    </rdf:RDF>
 </metadata>
 <g>
  <g id="text4775" opacity="0.99" transform="translate(-44.885 -64.35)" stroke="#fff" stroke-width=".5" fill="#fff">
   <path id="path3346" d="m62.761 172.44h-7.4271-2.2678-7.4838v1.7009h7.4838v38.326h2.2678v-38.326h7.4271v-1.7009z"/>
   <path id="path3348" d="m71.448 183.89v26.93l-5.6695-0.0567c-0.22678 0-0.39687-0.0567-0.62365-0.11339-0.62365-0.22678-1.1339-1.0205-1.1339-1.7576v-25.003h-2.2678v25.003c0 1.8709 1.5308 3.5718 3.4017 3.5718h0.62365l7.994 0.0567v-1.7009-26.93h-2.3245z"/>
   <path id="path3350" d="m82.818 183.89c-1.9276 0.17009-3.4017 1.5308-3.4017 3.4584v25.116h2.2678v-25.116c0-0.79374 0.51026-1.4174 1.1339-1.6442 0.22678-0.0567 0.68034-0.17009 0.68034-0.17009l3.912-0.0567v-1.5875c-0.85043 0-3.7419-0.0567-4.5923 0z"/>
   <path id="path3352" d="m99.167 183.89h-0.56695-6.8601v1.7009h6.8601c0.22678 0 0.39687 0.0567 0.56695 0.11339 0.68034 0.22678 1.1339 0.85043 1.1339 1.6442v7.4271h-6.8034-0.62365c-1.8709 0-3.4017 1.5308-3.4017 3.4017v10.886c0 1.871 1.5308 3.4017 3.4017 3.4017h0.62365 6.8034 2.3245v-1.7009-14.287-1.7009-7.4271c0-1.9276-1.5308-3.4584-3.4584-3.4584zm1.1339 26.874h-6.8034c-0.22678 0-0.39687-0.0567-0.62365-0.11339-0.62365-0.22678-1.1339-0.85043-1.1339-1.5875v-10.886c0-0.73704 0.51026-1.3607 1.1339-1.5875 0.22678-0.0567 0.39687-0.11339 0.62365-0.11339h6.8034v14.287z"/>
   <path id="path3354" d="m116.88 197.44c-1.871-0.96382-4.3655-1.9276-5.8963-2.8348-1.1906-0.62365-1.7576-0.90713-1.7576-2.7214v-4.5356c0-0.79374 0.51026-1.4174 1.1339-1.6442 0.22678-0.0567 0.39686-0.11339 0.62364-0.11339h7.4271v-1.7009h-7.4271-0.62364c-1.871 0-3.4017 1.5308-3.4017 3.4584v4.5356c0 1.5308 0 3.1749 2.2678 4.3656 2.0977 1.0205 3.9687 1.8142 5.6695 2.7214 0.96382 0.51026 1.7576 1.0772 1.7576 2.6647v7.4271c0 0.73704-0.45356 1.3607-1.1339 1.5875-0.17008 0.0567-0.34017 0.11339-0.56695 0.11339h-7.994v1.7009h7.994 0.56695c1.9276 0 3.4584-1.5308 3.4584-3.4017v-8.0507s0-2.5513-2.0977-3.5718z"/>
   <path id="path3356" d="m148.8 172.44h-7.4271-2.2678-7.4838v1.7009h7.4838v38.326h2.2678v-38.326h7.4271v-1.7009z"/>
   <path id="path3358" d="m157.7 183.89h-0.56696-5.1026-0.62365c-1.8709 0-3.4017 1.5308-3.4017 3.4584v9.128 1.7009 10.886c0 1.871 1.5308 3.4017 3.4017 3.4017h0.62365 8.561v-1.7009h-8.561c-0.22678 0-0.39687-0.0567-0.62365-0.11339-0.62365-0.22678-1.1339-0.85043-1.1339-1.5875v-10.886h8.561 2.3245v-1.7009-9.128c0-1.9276-1.5308-3.4584-3.4584-3.4584zm-7.4271 12.586v-9.128c0-0.79374 0.51025-1.4174 1.1339-1.6442 0.22678-0.0567 0.39687-0.11339 0.62365-0.11339h5.1026c0.22678 0 0.39687 0.0567 0.56696 0.11339 0.68034 0.22678 1.1339 0.85043 1.1339 1.6442v9.128h-8.561z"/>
   <path id="path3360" d="m169.24 185.71c0.22678-0.0567 0.39687-0.11339 0.62365-0.11339h8.561v-1.7009h-8.561-0.62365c-1.8709 0-3.4017 1.5308-3.4017 3.4584v21.714c0 1.871 1.5308 3.4017 3.4017 3.4017h0.62365 8.561v-1.7009h-8.561c-0.22678 0-0.39687-0.0567-0.62365-0.11339-0.62365-0.22678-1.1339-0.85043-1.1339-1.5875v-21.714c0-0.79374 0.51025-1.4174 1.1339-1.6442z"/>
   <path id="path3362" d="m194.78 183.89h-8.6177v-11.452h-2.2678v40.027h2.2678v-26.874h7.994c0.34017 0 0.62364 0.28348 0.62364 0.56695v26.307h2.2678v-26.307c0-1.2473-1.0205-2.2678-2.2678-2.2678z"/>
  </g>
  <g fill-rule="evenodd" stroke-width=".5">
   <path id="path4965" d="m91.607 48.804-28.118-0.0187 58.993-48.535 73.313 0.0359-22.538 18.495-45.096-0.0241-36.553 30.048" stroke="#fff" fill="#fff"/>
   <path id="path4971" d="m0.6968 100.45 58.993-48.539l28.225 0.0134-36.542 30.038 45.016 0.0289-22.547 18.503z" stroke="#00b0e7" fill="#00b0e7"/>
   <path id="path4977" d="m183.03 51.941 28.118 0.0187-58.993 48.535-73.313-0.0359 22.538-18.495 45.096 0.0241 36.553-30.048" stroke="#fff" fill="#fff"/>
   <path id="path4979" d="m273.95 0.29812-58.993 48.535-28.225-0.0134 36.542-30.038-45.016-0.0289 22.547-18.503z" stroke="#00b0e7" fill="#00b0e7"/>
  </g>
 </g>
</svg>
